<svg xmlns="http://www.w3.org/2000/svg" viewBox="0 0 200 32"><path d="M9.382 8.675h13.943v13.943L32 31.293V0H.707zm13.236 14.65H8.675V9.382L0 .707V32h31.293z" fill="#34A1E5"/><path d="M53.056 21.008c-.064.32-.384.608-.64.608-.304 0-.656-.24-.928-.768l-2.848-5.264 2.656-3.664c.576-.832 1.232-1.552 2.32-1.84-.128-1.328-.624-1.888-1.632-1.888-.848 0-1.248.432-1.52.928l-2.72 4.752-1.488-2.992c-.896-1.76-1.664-2.688-3.296-2.688-1.712 0-2.304.976-2.304 1.904 0 .704.368 1.2.864 1.44.064-.32.384-.608.72-.608.32 0 .56.256.848.768l2.624 4.896-2.864 4.016c-.624.88-1.264 1.568-2.336 1.856.112 1.28.592 1.888 1.616 1.888.8 0 1.216-.384 1.552-.928l3.024-4.944 1.648 3.184c.88 1.648 1.568 2.688 3.168 2.688 1.488 0 2.432-.96 2.432-1.952a1.55 1.55 0 0 0-.896-1.392ZM63.296 15.584c1.792-.464 2.864-1.904 2.864-3.728 0-2.72-2.32-3.776-6.208-3.776-1.92 0-3.264.256-4.208.704.384 1.008.448 2.192.448 2.912v10.752c0 1.008.768 1.584 1.792 1.584h2.528c4.064 0 6.416-1.472 6.416-4.448 0-2.336-1.504-3.696-3.632-4ZM60 9.168c2.16 0 2.848 1.2 2.848 2.944 0 1.824-.688 3.12-2.48 3.072h-1.04V9.168Zm.384 13.792h-1.056v-6.704h1.104c1.76 0 3.088.672 3.088 3.392 0 1.856-.832 3.312-3.136 3.312ZM71.872 24.256c1.104 0 2.048-.672 2.048-1.616 0-.256-.096-.64-.32-.96-.128.224-.448.288-.656.288-.512 0-.784-.4-.784-1.184v-8.128c0-1.856.08-2.928.448-4.368a2.59 2.59 0 0 0-1.744-.672c-1.008 0-1.76.576-1.76 1.584v11.856c0 1.968.96 3.2 2.768 3.2ZM80.528 24.352c3.488 0 5.52-2.272 5.52-6.096 0-3.856-2.032-6.112-5.52-6.112-3.504 0-5.536 2.256-5.536 6.112 0 3.824 2.032 6.096 5.536 6.096Zm0-1.04c-1.552 0-2.24-1.696-2.24-5.056 0-3.376.688-5.088 2.24-5.088 1.52 0 2.208 1.712 2.208 5.088 0 3.36-.688 5.056-2.208 5.056ZM91.952 29.056c3.424 0 5.952-1.552 5.952-6v-9.44c-1.104-.912-2.864-1.472-4.816-1.472-4.032 0-5.504 2.64-5.504 6.32 0 4.048 1.632 5.52 3.984 5.52 1.68 0 2.8-.784 3.312-2.192-.016.544-.016 1.28-.016 1.68 0 2.752-.944 4.656-2.832 4.656-1.088 0-1.52-.64-1.52-1.472 0-.576.224-1.136.672-1.552-.272-.336-.768-.512-1.408-.512-1.232 0-2.112.736-2.112 1.888 0 1.856 2.016 2.576 4.288 2.576Zm.56-6.48c-1.28 0-1.664-.976-1.664-3.808 0-3.536.464-5.6 2.416-5.6.608 0 1.216.176 1.6.48l-.032 4.816c-.016 2.592-.8 4.112-2.32 4.112Z"/></svg>